<mxfile host="528ce688-099d-4dc5-8930-0485073a1acd" modified="2020-08-31T09:31:24.832Z" agent="5.0 (Windows NT 10.0; Win64; x64) AppleWebKit/537.36 (KHTML, like Gecko) Code/1.48.2 Chrome/78.0.3904.130 Electron/7.3.2 Safari/537.36" etag="hmTdQwoO02nHNu_X5RIm" version="13.1.3">
    <diagram id="6hGFLwfOUW9BJ-s0fimq" name="Page-1">
        <mxGraphModel dx="1621" dy="824" grid="1" gridSize="10" guides="1" tooltips="1" connect="1" arrows="1" fold="1" page="1" pageScale="1" pageWidth="1300" pageHeight="400" math="0" shadow="0">
            <root>
                <mxCell id="0"/>
                <mxCell id="1" parent="0"/>
                <mxCell id="14" style="edgeStyle=orthogonalEdgeStyle;rounded=0;orthogonalLoop=1;jettySize=auto;html=1;exitX=0;exitY=0.75;exitDx=0;exitDy=0;entryX=1;entryY=0.75;entryDx=0;entryDy=0;strokeWidth=4;" edge="1" parent="1" source="3" target="4">
                    <mxGeometry relative="1" as="geometry"/>
                </mxCell>
                <mxCell id="15" style="edgeStyle=orthogonalEdgeStyle;rounded=0;orthogonalLoop=1;jettySize=auto;html=1;exitX=1;exitY=0.5;exitDx=0;exitDy=0;strokeWidth=4;" edge="1" parent="1" source="3" target="6">
                    <mxGeometry relative="1" as="geometry"/>
                </mxCell>
                <mxCell id="3" value="&lt;span style=&quot;font-size: 20px&quot;&gt;JavaScript&lt;br&gt;程式碼&lt;br&gt;&lt;/span&gt;" style="rounded=1;whiteSpace=wrap;html=1;fontFamily=微軟正黑體;fontSize=24;fontStyle=1" vertex="1" parent="1">
                    <mxGeometry x="295" y="105" width="160" height="70" as="geometry"/>
                </mxCell>
                <mxCell id="12" style="edgeStyle=orthogonalEdgeStyle;rounded=0;orthogonalLoop=1;jettySize=auto;html=1;exitX=1;exitY=0.25;exitDx=0;exitDy=0;entryX=0;entryY=0.25;entryDx=0;entryDy=0;strokeWidth=4;" edge="1" parent="1" source="4" target="3">
                    <mxGeometry relative="1" as="geometry"/>
                </mxCell>
                <mxCell id="4" value="&lt;font style=&quot;font-size: 20px&quot;&gt;開發者&lt;br&gt;Developer&lt;/font&gt;" style="rounded=1;whiteSpace=wrap;html=1;fontFamily=微軟正黑體;fontSize=24;fontStyle=1" vertex="1" parent="1">
                    <mxGeometry x="25" y="105" width="160" height="70" as="geometry"/>
                </mxCell>
                <mxCell id="23" style="edgeStyle=orthogonalEdgeStyle;rounded=0;orthogonalLoop=1;jettySize=auto;html=1;exitX=1;exitY=0.5;exitDx=0;exitDy=0;entryX=0;entryY=0.5;entryDx=0;entryDy=0;strokeWidth=4;" edge="1" parent="1" source="6" target="8">
                    <mxGeometry relative="1" as="geometry"/>
                </mxCell>
                <mxCell id="6" value="&lt;span style=&quot;font-size: 20px&quot;&gt;抽象語法樹&lt;br&gt;AST&lt;br&gt;&lt;/span&gt;" style="rounded=1;whiteSpace=wrap;html=1;fontFamily=微軟正黑體;fontSize=24;fontStyle=1" vertex="1" parent="1">
                    <mxGeometry x="535" y="105" width="160" height="70" as="geometry"/>
                </mxCell>
                <mxCell id="28" style="edgeStyle=orthogonalEdgeStyle;rounded=0;orthogonalLoop=1;jettySize=auto;html=1;exitX=1;exitY=0.5;exitDx=0;exitDy=0;entryX=0;entryY=0.5;entryDx=0;entryDy=0;strokeWidth=4;" edge="1" parent="1" source="8" target="27">
                    <mxGeometry relative="1" as="geometry"/>
                </mxCell>
                <mxCell id="33" style="edgeStyle=orthogonalEdgeStyle;rounded=0;orthogonalLoop=1;jettySize=auto;html=1;exitX=0.5;exitY=1;exitDx=0;exitDy=0;strokeWidth=4;" edge="1" parent="1" source="8">
                    <mxGeometry relative="1" as="geometry">
                        <mxPoint x="854.5882352941176" y="230" as="targetPoint"/>
                    </mxGeometry>
                </mxCell>
                <mxCell id="8" value="&lt;span style=&quot;font-size: 20px&quot;&gt;位元碼&lt;br&gt;Bytecode&lt;br&gt;&lt;/span&gt;" style="rounded=1;whiteSpace=wrap;html=1;fontFamily=微軟正黑體;fontSize=24;fontStyle=1" vertex="1" parent="1">
                    <mxGeometry x="775" y="105" width="160" height="70" as="geometry"/>
                </mxCell>
                <mxCell id="18" value="執行" style="text;html=1;strokeColor=none;fillColor=none;align=center;verticalAlign=middle;whiteSpace=wrap;rounded=0;fontFamily=微軟正黑體;fontSize=24;fontStyle=1" vertex="1" parent="1">
                    <mxGeometry x="1115" y="240" width="160" height="20" as="geometry"/>
                </mxCell>
                <mxCell id="19" value="解析" style="text;html=1;strokeColor=none;fillColor=none;align=center;verticalAlign=middle;whiteSpace=wrap;rounded=0;fontFamily=微軟正黑體;fontSize=24;fontStyle=1" vertex="1" parent="1">
                    <mxGeometry x="415" y="80" width="160" height="20" as="geometry"/>
                </mxCell>
                <mxCell id="20" value="閱讀" style="text;html=1;strokeColor=none;fillColor=none;align=center;verticalAlign=middle;whiteSpace=wrap;rounded=0;fontFamily=微軟正黑體;fontSize=24;fontStyle=1" vertex="1" parent="1">
                    <mxGeometry x="155" y="180" width="160" height="20" as="geometry"/>
                </mxCell>
                <mxCell id="21" value="撰寫" style="text;html=1;strokeColor=none;fillColor=none;align=center;verticalAlign=middle;whiteSpace=wrap;rounded=0;fontFamily=微軟正黑體;fontSize=24;fontStyle=1" vertex="1" parent="1">
                    <mxGeometry x="155" y="80" width="160" height="20" as="geometry"/>
                </mxCell>
                <mxCell id="36" style="edgeStyle=orthogonalEdgeStyle;rounded=0;orthogonalLoop=1;jettySize=auto;html=1;exitX=0.5;exitY=1;exitDx=0;exitDy=0;strokeWidth=4;" edge="1" parent="1" source="27">
                    <mxGeometry relative="1" as="geometry">
                        <mxPoint x="1194.5882352941176" y="230" as="targetPoint"/>
                    </mxGeometry>
                </mxCell>
                <mxCell id="27" value="&lt;span style=&quot;font-size: 20px&quot;&gt;機械碼&lt;br&gt;Machine Code&lt;br&gt;&lt;/span&gt;" style="rounded=1;whiteSpace=wrap;html=1;fontFamily=微軟正黑體;fontSize=24;fontStyle=1" vertex="1" parent="1">
                    <mxGeometry x="1115" y="105" width="160" height="70" as="geometry"/>
                </mxCell>
                <mxCell id="30" value="產生" style="text;html=1;strokeColor=none;fillColor=none;align=center;verticalAlign=middle;whiteSpace=wrap;rounded=0;fontFamily=微軟正黑體;fontSize=24;fontStyle=1" vertex="1" parent="1">
                    <mxGeometry x="655" y="80" width="160" height="20" as="geometry"/>
                </mxCell>
                <mxCell id="31" value="最佳化編譯" style="text;html=1;strokeColor=none;fillColor=none;align=center;verticalAlign=middle;whiteSpace=wrap;rounded=0;fontFamily=微軟正黑體;fontSize=24;fontStyle=1" vertex="1" parent="1">
                    <mxGeometry x="945" y="80" width="160" height="20" as="geometry"/>
                </mxCell>
                <mxCell id="32" value="執行" style="text;html=1;strokeColor=none;fillColor=none;align=center;verticalAlign=middle;whiteSpace=wrap;rounded=0;fontFamily=微軟正黑體;fontSize=24;fontStyle=1" vertex="1" parent="1">
                    <mxGeometry x="775" y="240" width="160" height="20" as="geometry"/>
                </mxCell>
                <mxCell id="37" value="&lt;font style=&quot;font-size: 14px&quot;&gt;&lt;font style=&quot;font-size: 14px&quot;&gt;部分概念參考：Ross McIlroy, Orion Hodson, Mythri Alle (2016) Ignition: An Interpreter for V8.&amp;nbsp;&lt;/font&gt;&lt;i&gt;Chrome Mobile Performance Team, London&lt;/i&gt;&lt;/font&gt;" style="text;whiteSpace=wrap;html=1;fontSize=24;fontFamily=微軟正黑體;" vertex="1" parent="1">
                    <mxGeometry x="23" y="320" width="1255" as="geometry"/>
                </mxCell>
            </root>
        </mxGraphModel>
    </diagram>
</mxfile>